<?xml version="1.0" encoding="UTF-8"?>
<svg width="48px" height="32px" viewBox="0 0 48 32" version="1.1" xmlns="http://www.w3.org/2000/svg" xmlns:xlink="http://www.w3.org/1999/xlink">
    <title>Visa</title>
    <g stroke="none" stroke-width="1" fill="none" fill-rule="evenodd">
        <rect stroke="#E5E7EB" fill="#FFFFFF" x="0.5" y="0.5" width="47" height="31" rx="4"></rect>
        <g transform="translate(7.000000, 9.000000)" fill-rule="nonzero">
            <polygon fill="#1434CB" points="12.7207602 1.26214204 8.97895234 13.7372847 6.05349272 13.7372847 9.79700126 1.26214204"></polygon>
            <path d="M22.0520516,1.43559083 C21.3705561,1.15587152 20.2824205,0.854518664 18.9415788,0.854518664 C15.1446463,0.854518664 12.4749916,2.84255121 12.4575104,5.64633509 C12.4408013,7.75500519 14.3734908,8.92202765 15.8282286,9.61612199 C17.3127938,10.3266458 17.8253526,10.7811173 17.8182317,11.4317656 C17.8101564,12.4195823 16.6539298,12.870656 15.5699027,12.870656 C13.9792935,12.870656 13.1327212,12.6518212 11.7825839,12.1187591 L11.2380973,11.8994242 L10.6495288,14.9174058 C11.4442183,15.2773478 13.0108761,15.5956261 14.6341903,15.6090747 C18.6700877,15.6090747 21.2850784,13.6417154 21.3127867,10.6469576 C21.3269503,9.01012163 20.3676637,7.7968497 18.1874237,6.75446948 C16.8583079,6.07071153 16.0251482,5.64219752 16.0339054,4.95878634 C16.0339054,4.34761497 16.7165013,3.69602004 18.2255744,3.69602004 C19.4868631,3.67841361 20.3968265,3.95399533 21.0882855,4.24095022 L21.4701957,4.40996141 L22.0520516,1.43559083 Z" fill="#1434CB"></path>
            <path d="M26.6278324,9.36191631 C26.9500702,8.47629123 28.081376,5.64745861 28.081376,5.64745861 C28.0557133,5.693082 28.3337662,5.00699114 28.498354,4.56114626 L28.72645,5.5170975 C28.72645,5.5170975 29.3820441,8.53631592 29.5359531,9.36191631 C28.9723101,9.36191631 27.4159078,9.36191631 26.6278324,9.36191631 L26.6278324,9.36191631 Z M31.5471764,1.26214204 L29.2736661,1.26214204 C28.486932,1.26214204 27.8980453,1.49675932 27.5663973,2.34809275 L22.2038212,13.7372847 L25.9841326,13.7372847 C25.9841326,13.7372847 26.5855957,12.0698888 26.7125773,11.7324109 C27.1512466,11.7324109 30.2163357,11.7324109 30.7722051,11.7324109 C30.8726977,12.1631973 31.1932446,13.7372847 31.1932446,13.7372847 L34.5,13.7372847 L31.5471764,1.26214204 Z" fill="#1434CB"></path>
            <path d="M5.96561918,1.26214204 L0.0354070031,13.7372847 L3.87338344,13.7372847 L4.72656649,11.5550109 L9.63882391,11.5550109 L10.1002034,13.7372847 L13.6324166,13.7372847 L10.279194,1.26214204 L5.96561918,1.26214204 Z M6.05349272,4.42521807 C6.05349272,4.42521807 7.08322934,7.28620507 7.48190757,8.34558465 C6.75715778,8.34558465 5.25827413,8.34558465 4.67546808,8.34558465 C5.07938428,7.24277511 6.05349272,4.42521807 6.05349272,4.42521807 L6.05349272,4.42521807 Z" fill="#1434CB"></path>
            <path d="M0,0 L1.19989599,0 L1.19989599,0.383261769 L0.736336324,0.383261769 L0.736336324,0.901619189 L1.14707528,0.901619189 L1.14707528,1.28317916 L0.736336324,1.28317916 L0.736336324,1.99685254 L0,1.99685254 L0,0 Z" fill="#F7B600"></path>
            <path d="M1.31090439,0 L1.97631673,0 C2.20472208,0 2.33642837,0.158544016 2.33642837,0.35030364 C2.33642837,0.575865748 2.17629953,0.687639563 2.02157734,0.703055562 L2.39271932,1.99685254 L1.65818624,1.99685254 L1.32833795,0.753454747 L1.31090439,0.753454747 L1.31090439,1.99685254 L0.574568132,1.99685254 L0.574568132,0 L1.31090439,0 Z M1.31090439,0.383261769 L1.31090439,0.63785076 L1.46732749,0.63785076 C1.56902709,0.63785076 1.61844473,0.584130525 1.61844473,0.509778611 C1.61844473,0.430993697 1.55159353,0.383261769 1.46732749,0.383261769 L1.31090439,0.383261769 Z" fill="#F7B600" transform="translate(1.455498, 0.998426) scale(-1, 1) translate(-1.455498, -0.998426) "></path>
        </g>
    </g>
</svg>
