<?xml version="1.0" encoding="UTF-8"?>
<svg width="48px" height="32px" viewBox="0 0 48 32" version="1.1" xmlns="http://www.w3.org/2000/svg" xmlns:xlink="http://www.w3.org/1999/xlink">
    <title>Mastercard</title>
    <g stroke="none" stroke-width="1" fill="none" fill-rule="evenodd">
        <rect stroke="#E5E7EB" fill="#FFFFFF" x="0.5" y="0.5" width="47" height="31" rx="4"></rect>
        <g transform="translate(7.000000, 8.000000)" fill-rule="nonzero">
            <rect fill="#FF5F00" x="12.2623762" y="2.36386139" width="10.4752475" height="19.0722772"></rect>
            <path d="M13.0792079,11.9 C13.0792079,8.11881188 14.7366337,4.75643564 17.5,2.36386139 C15.6252475,0.886138614 13.2618812,0 10.7005941,0 C4.78861386,0 0,5.32871287 0,11.9 C0,18.4712871 4.78861386,23.8 10.7005941,23.8 C13.2618812,23.8 15.6252475,22.9138614 17.5,21.4361386 C14.7366337,19.0435644 13.0792079,15.6811881 13.0792079,11.9 L13.0792079,11.9 Z" fill="#EB001B"></path>
            <path d="M35,11.9 C35,18.4712871 30.2113861,23.8 24.2994059,23.8 C21.7381188,23.8 19.3747525,22.9138614 17.5,21.4361386 C20.2633663,19.0435644 21.9207921,15.6811881 21.9207921,11.9 C21.9207921,8.11881188 20.2633663,4.75643564 17.5,2.36386139 C19.3747525,0.886138614 21.7381188,0 24.2994059,0 C30.2113861,0 35,5.32871287 35,11.9 L35,11.9 Z" fill="#F79E1B"></path>
        </g>
    </g>
</svg>
