<?xml version="1.0" encoding="UTF-8"?>
<svg width="48px" height="32px" viewBox="0 0 48 32" version="1.1" xmlns="http://www.w3.org/2000/svg" xmlns:xlink="http://www.w3.org/1999/xlink">
    <title>American Express</title>
    <g stroke="none" stroke-width="1" fill="none" fill-rule="evenodd">
        <rect stroke="#E5E7EB" fill="#FFFFFF" x="0.5" y="0.5" width="47" height="31" rx="4"></rect>
        <g transform="translate(7.000000, 8.000000)">
            <rect fill="#1F72CD" x="0" y="0" width="34" height="16" rx="1"></rect>
            <polygon fill="#FFFFFF" points="3.5 8 5.5 3 7.5 8 7.5 3 10 3 10 13 7 13 4.75 7.5 2.5 13 0 13 0 3 3.5 3"></polygon>
            <path d="M30,3 L34,3 L34,4.5 L31.25,4.5 L31.25,6.5 L33.75,6.5 L33.75,8 L31.25,8 L31.25,10 L34,10 L34,11.5 L30,11.5 L30,3 Z" fill="#FFFFFF"></path>
            <path d="M27.5,3 L24.5,9 L24.5,13 L22,13 L22,9 L19,3 L21.75,3 L24,7.5 L26.25,3 L27.5,3 Z" fill="#FFFFFF"></path>
            <path d="M15,3 L19,3 C21.5,3 21.5,6 20,6.75 C22,7.25 22.25,11.5 19,11.5 L15,11.5 L15,3 Z M17.5,4.5 L17.5,6 L18.5,6 C19.5,6 19.5,4.5 18.5,4.5 L17.5,4.5 Z M17.5,7.5 L17.5,10 L18.75,10 C20.25,10 20.25,7.5 18.75,7.5 L17.5,7.5 Z" fill="#FFFFFF"></path>
        </g>
    </g>
</svg>
