<?xml version="1.0" encoding="UTF-8"?>
<svg width="48px" height="32px" viewBox="0 0 48 32" version="1.1" xmlns="http://www.w3.org/2000/svg" xmlns:xlink="http://www.w3.org/1999/xlink">
    <title>PayPal</title>
    <g stroke="none" stroke-width="1" fill="none" fill-rule="evenodd">
        <rect stroke="#E5E7EB" fill="#FFFFFF" x="0.5" y="0.5" width="47" height="31" rx="4"></rect>
        <g transform="translate(10.000000, 8.000000)" fill-rule="nonzero">
            <path d="M22.6152934,3.42932331 C22.7411107,2.45435812 22.6152934,1.78321529 22.1119716,1.2133913 C21.5471005,0.580397243 20.4775787,0.307352435 19.0901077,0.307352435 L14.4045618,0.307352435 C14.1529272,0.307352435 13.9433144,0.51778722 13.8916515,0.770831737 L11.7221078,14.7362392 C11.6912449,14.8962533 11.8170623,15.0355423 11.9737351,15.0355423 L14.4354247,15.0355423 C14.7179148,15.0355423 14.9583494,14.8267698 14.9995122,14.5437249 L15.6159742,10.5664901 C15.6571371,10.2834452 15.8975716,10.0746728 16.1800618,10.0746728 L17.3128232,10.0746728 C21.0128231,10.0746728 23.3730618,8.25596753 23.9688113,4.57657112 C24.2410015,3.05858573 23.6761304,1.97564382 22.6152934,3.42932331 Z M19.4968032,4.69916262 C19.171656,6.55227928 17.7532486,6.55227928 16.3866332,6.55227928 L15.5262404,6.55227928 L16.0680287,3.39762921 C16.0991347,3.23761508 16.2351648,3.12892352 16.3969849,3.12892352 L16.7936201,3.12892352 C17.7221425,3.12892352 18.5924009,3.12892352 19.0438206,3.63444161 C19.3276083,3.94748299 19.3998885,4.25681269 19.4968032,4.69916262 Z" fill="#009CDE"></path>
            <path d="M3.98393262,3.42932331 C4.1097499,2.45435812 3.98393262,1.78321529 3.48061084,1.2133913 C2.91573971,0.580397243 1.84621795,0.307352435 0.458747003,0.307352435 L-4.22698986,0.307352435 C-4.47862452,0.307352435 -4.68823731,0.51778722 -4.73990019,0.770831737 L-6.90944384,14.7362392 C-6.94030676,14.8962533 -6.81448949,15.0355423 -6.65771669,15.0355423 L-3.94102186,15.0355423 C-3.72088486,15.0355423 -3.53179628,14.8649947 -3.4905983,14.6425781 L-2.85358631,10.5664901 C-2.81242343,10.2834452 -2.57198897,10.0746728 -2.28949887,10.0746728 L-1.15673744,10.0746728 C2.54141722,10.0746728 4.9016559,8.25596753 5.49740542,4.57657112 C5.77960154,3.05858573 5.21473041,1.97564382 3.98393262,3.42932331 Z M0.86544248,4.69916262 C0.54029527,6.55227928 -0.878112121,6.55227928 -2.24472751,6.55227928 L-3.10512035,6.55227928 L-2.56333198,3.39762921 C-2.53222598,3.23761508 -2.39619593,3.12892352 -2.23436749,3.12892352 L-1.83773234,3.12892352 C-0.908809931,3.12892352 -0.0385516193,3.12892352 0.415068104,3.63444161 C0.698855782,3.94748299 0.771135976,4.25681269 0.86544248,4.69916262 Z" fill="#003087" transform="translate(0.840779, 7.671447) translate(0.000000, -0.000000) translate(-0.840779, 0.000000) "></path>
            <path d="M10.2948984,4.66746853 L8.42151873,4.66746853 C8.25969029,4.66746853 8.12366024,4.77616008 8.09255424,4.93617422 L7.54016349,8.14599454 L5.00103918,8.14599454 C4.84442072,8.14599454 4.71860346,8.28529887 4.74946639,8.44531301 L6.25098496,18.6277904 C6.27133312,18.7490795 6.37465889,18.8383037 6.49527316,18.8383037 L8.67315339,18.8383037 C8.83497183,18.8383037 8.9710019,18.7296113 9.00210789,18.5695972 L9.65992231,14.1713273 C9.70108519,13.8882824 9.94151965,13.6795101 10.2240097,13.6795101 L11.3567712,13.6795101 C15.056771,13.6795101 17.4170097,11.8608049 18.0127591,8.18140032 C18.2849493,6.66341493 17.7200782,5.58047303 16.6592412,4.9092551 C15.5675651,4.21641808 13.9934541,4.66746853 10.2948984,4.66746853 Z" fill="#003087"></path>
        </g>
    </g>
</svg>
